<svg width="195" height="52" viewBox="0 0 195 52" fill="none" xmlns="http://www.w3.org/2000/svg">
<path d="M147.913 23.6625L141.74 33.255L141.126 23.6625H135.969H134.366H132.255C133.083 20.8569 133.724 18.5857 133.724 18.5857L134.072 17.4634H127.258L126.937 18.5857L125.468 23.6625H119.67C118.708 23.6625 118.227 23.6625 118.227 23.6625C112.268 23.6625 108.928 25.3726 107.539 28.579C106.737 25.6398 104.092 23.6625 100.004 23.6625C96.4767 23.6625 93.3504 24.9718 91.0258 27.0559C89.8234 24.9718 87.4453 23.6625 84.132 23.6625C80.3378 23.6625 77.0512 25.1855 74.6464 27.5102C73.5509 25.1855 71.066 23.6625 67.5122 23.6625C66.2831 23.6625 65.1341 23.8228 64.0386 24.1167L64.573 22.273C64.573 22.2463 64.5997 22.2196 64.5997 22.1929L65.9624 17.4634H59.1756L54.8469 32.3732C54.7401 32.6671 54.6332 32.961 54.553 33.2817C54.366 33.9764 54.2324 34.6444 54.1789 35.2857C53.6178 39.454 55.4348 42.5802 60.4849 42.794C60.9391 42.8474 61.4201 42.8741 61.9544 42.8741C65.5349 42.8741 68.8749 41.3511 71.3332 39.0265C72.3752 41.3511 74.8068 42.8741 78.5743 42.8741C81.9143 42.8741 85.0672 41.5649 87.4453 39.4807C88.5943 41.5649 90.9456 42.8741 94.446 42.8741C102.034 42.8741 107.699 42.8741 111.44 42.8741C116.704 42.8741 119.67 41.8321 121.219 39.5876C121.219 41.7519 122.448 42.8741 125.548 42.8741C128.06 42.8741 131.426 42.313 136.049 41.1908L129.342 50.7565H136.129L154.7 23.6625H147.913ZM68.1535 33.255C67.5122 35.446 65.4815 37.2095 63.6111 37.2095C61.7407 37.2095 60.7253 35.446 61.3666 33.255C62.0079 31.0639 64.0386 29.3004 65.909 29.3004C67.7794 29.3004 68.7948 31.0639 68.1535 33.255ZM84.7466 33.255C84.1053 35.446 82.0746 37.2095 80.2042 37.2095C78.3338 37.2095 77.3184 35.446 77.9597 33.255C78.601 31.0639 80.6317 29.3004 82.5021 29.3004C84.3725 29.3004 85.3879 31.0639 84.7466 33.255ZM93.8581 33.255C94.4994 31.0639 96.5301 29.3004 98.4005 29.3004C100.271 29.3004 101.286 31.0639 100.645 33.255C100.03 35.4193 98.0264 37.1561 96.1828 37.2095C96.1293 37.2095 96.0759 37.2095 96.0224 37.2095C94.2055 37.1561 93.2436 35.4193 93.8581 33.255ZM115.688 36.5148C115.341 37.3164 112.669 37.1828 112.001 37.2095C112.001 37.2095 110.237 37.2095 105.428 37.2095C106.31 36.0071 107.004 34.6711 107.405 33.255C107.459 33.1214 107.485 32.961 107.512 32.8274C108.233 33.8428 109.73 34.7513 112.642 35.3391C115.421 35.8735 115.929 35.7132 115.688 36.5148ZM122.395 34.3505C121.807 32.106 119.322 31.1975 115.822 30.77C114.352 30.583 113.524 30.5295 113.711 29.8882C113.845 29.4073 114.593 29.3004 116.169 29.3004C117.158 29.3004 118.334 29.3004 119.696 29.3004H123.865L122.395 34.3505ZM129.155 34.3772C129.155 34.3238 129.823 32.0793 130.625 29.3004H134.927L135.621 36.4881C128.541 38.0111 128.38 37.6103 129.155 34.3772Z" fill="white"/>
<path d="M186.817 23.6625C180.431 23.6625 175.408 27.9644 173.885 33.255C173.537 34.4574 173.404 35.6063 173.484 36.6751C167.258 37.9577 167.124 37.4767 167.873 34.3772C167.873 34.3238 168.541 32.0793 169.342 29.3004H174.686L176.343 23.6625H170.972C171.8 20.8569 172.442 18.5857 172.442 18.5857L172.789 17.4634H165.975L165.655 18.5857L164.185 23.6625H158.387L156.704 29.3004H162.555L160.391 36.7553C159.295 40.7098 159.99 42.8474 164.265 42.8474C166.777 42.8474 170.144 42.2863 174.766 41.1641L175.488 41.0038C176.797 42.1527 178.721 42.8474 181.259 42.8474C187.298 42.8474 192.669 38.5455 194.192 33.255C195.715 27.9644 192.802 23.6625 186.817 23.6625ZM187.405 33.255C186.764 35.446 184.733 37.2095 182.862 37.2095C180.992 37.2095 179.977 35.446 180.618 33.255C181.259 31.0639 183.29 29.3004 185.16 29.3004C187.031 29.3004 188.046 31.0639 187.405 33.255Z" fill="white"/>
<path d="M153.703 42.0925C155.246 41.0023 155.833 39.1806 155.015 38.0237C154.198 36.8669 152.284 36.8129 150.742 37.9032C149.2 38.9935 148.612 40.8151 149.43 41.972C150.247 43.1288 152.161 43.1828 153.703 42.0925Z" fill="white"/>
<path d="M2.20857 30.4226L10.946 0.255768H24.3327L21.634 9.60776C21.6073 9.6612 21.5806 9.71464 21.5538 9.76808L14.4463 34.4574H21.0729C18.294 41.3778 16.1297 46.802 14.5799 50.7298C2.34217 50.5962 -1.07798 41.8321 1.91465 31.4647M14.6066 50.7565L30.7455 27.5369H23.9052L29.8638 12.6538C40.0708 13.7226 44.8804 21.7654 42.0481 31.4914C39.0287 41.9389 26.7642 50.7565 14.8471 50.7565C14.767 50.7565 14.6868 50.7565 14.6066 50.7565Z" fill="white"/>
</svg>
