<svg width="45" height="45" viewBox="0 0 45 45" fill="none" xmlns="http://www.w3.org/2000/svg">
<path d="M22.5 1.07143C34.3348 1.07143 43.9286 10.6652 43.9286 22.5C43.9286 34.3348 34.3348 43.9286 22.5 43.9286C10.6652 43.9286 1.07144 34.3348 1.07144 22.5C1.07144 10.6652 10.6652 1.07143 22.5 1.07143ZM29.892 31.2348C30.2857 30.0259 32.133 17.9732 32.3607 15.5982C32.4295 14.8786 32.2027 14.4009 31.7572 14.1875C31.2188 13.9286 30.4214 14.058 29.4955 14.392C28.2268 14.8491 12.0045 21.7375 11.067 22.1357C10.1786 22.5134 9.33751 22.925 9.33751 23.5214C9.33751 23.9411 9.58662 24.1768 10.2723 24.4214C10.9857 24.6759 12.783 25.2205 13.8447 25.5134C14.867 25.7955 16.0304 25.5509 16.6822 25.1455C17.3732 24.7161 25.3518 19.3777 25.9241 18.9098C26.4964 18.442 26.9527 19.0411 26.4848 19.5098C26.017 19.9777 20.5411 25.2929 19.8188 26.0286C18.942 26.9223 19.5643 27.8482 20.1527 28.2187C20.8241 28.642 25.6554 31.8821 26.383 32.4018C27.1107 32.9214 27.8482 33.1571 28.5241 33.1571C29.2 33.1571 29.5554 32.2679 29.892 31.2348Z" fill="white"/>
</svg>
