<svg width="50" height="29" viewBox="0 0 50 29" fill="none" xmlns="http://www.w3.org/2000/svg">
<g clip-path="url(#clip0_2_41)">
<path d="M49.7349 25.7632C49.6744 25.6327 49.6179 25.5244 49.5654 25.4377C48.6979 23.8754 47.0401 21.9576 44.5931 19.6841L44.5414 19.632L44.5156 19.6065L44.4894 19.5803H44.4631C43.3524 18.5216 42.6492 17.8097 42.3547 17.4453C41.8159 16.751 41.6952 16.0483 41.9897 15.3363C42.1977 14.7983 42.9794 13.6622 44.3326 11.9264C45.0444 11.0064 45.6081 10.2692 46.0246 9.71368C49.0274 5.72176 50.3291 3.17087 49.9296 2.06002L49.7746 1.80043C49.6704 1.64414 49.4014 1.50117 48.9679 1.37078C48.5336 1.24067 47.9784 1.21915 47.3014 1.30586L39.8042 1.35765C39.6827 1.31461 39.5092 1.31863 39.2834 1.37078C39.0577 1.42294 38.9447 1.44911 38.9447 1.44911L38.8142 1.5143L38.7107 1.59263C38.6239 1.64442 38.5284 1.73551 38.4242 1.86571C38.3204 1.99547 38.2339 2.14774 38.1644 2.32125C37.3482 4.42124 36.4202 6.37371 35.3787 8.17856C34.7364 9.25475 34.1467 10.1875 33.6082 10.9772C33.0702 11.7666 32.6189 12.3482 32.2547 12.7211C31.8899 13.0943 31.5609 13.3933 31.2652 13.6191C30.9702 13.8451 30.7449 13.9405 30.5887 13.9056C30.4324 13.8707 30.2852 13.8361 30.1457 13.8014C29.9029 13.6451 29.7077 13.4326 29.5604 13.1636C29.4124 12.8946 29.3129 12.5561 29.2609 12.1482C29.2089 11.7401 29.1784 11.389 29.1697 11.0939C29.1614 10.7991 29.1652 10.3821 29.1829 9.84415C29.2009 9.3059 29.2089 8.94173 29.2089 8.7508C29.2089 8.09121 29.2219 7.37533 29.2477 6.60303C29.2739 5.83071 29.2952 5.21881 29.3129 4.76801C29.3307 4.31674 29.3389 3.83934 29.3389 3.33602C29.3389 2.83269 29.3082 2.43796 29.2477 2.15148C29.1879 1.86535 29.0962 1.58761 28.9752 1.31835C28.8534 1.04937 28.6752 0.841293 28.4414 0.693581C28.2072 0.546049 27.9159 0.428971 27.5694 0.341987C26.6494 0.133819 25.4779 0.0212109 24.0546 0.00370412C20.8267 -0.0309447 18.7526 0.177495 17.8327 0.628751C17.4683 0.819411 17.1385 1.07992 16.8436 1.40944C16.5311 1.7914 16.4876 1.99984 16.7131 2.03413C17.7546 2.19014 18.4919 2.56334 18.9258 3.15337L19.0822 3.46604C19.2038 3.69162 19.3253 4.09099 19.4468 4.66361C19.5682 5.23621 19.6465 5.86966 19.681 6.56354C19.7676 7.83068 19.7676 8.91538 19.681 9.8177C19.5941 10.7204 19.512 11.4231 19.4337 11.9264C19.3554 12.4298 19.2383 12.8376 19.0822 13.1499C18.9258 13.4623 18.8218 13.6532 18.7696 13.7225C18.7176 13.7918 18.6742 13.8355 18.6397 13.8526C18.4141 13.9391 18.1795 13.9831 17.9367 13.9831C17.6935 13.9831 17.3986 13.8615 17.0516 13.6184C16.7047 13.3753 16.3446 13.0414 15.9714 12.6161C15.5982 12.1908 15.1773 11.5964 14.7085 10.8328C14.2401 10.0693 13.7541 9.16685 13.2508 8.12558L12.8344 7.37041C12.574 6.88458 12.2184 6.17721 11.7672 5.24889C11.3157 4.32022 10.9166 3.42189 10.5696 2.55412C10.4309 2.18968 10.2226 1.91222 9.94495 1.72128L9.81465 1.64296C9.72803 1.57366 9.58898 1.50008 9.39823 1.42166C9.2072 1.34334 9.00788 1.28717 8.79943 1.25261L1.66643 1.3044C0.937525 1.3044 0.442959 1.46953 0.182545 1.79933L0.0783246 1.95534C0.0262602 2.04224 0 2.18102 0 2.37204C0 2.56297 0.0520644 2.79732 0.156284 3.07477C1.19757 5.52209 2.32995 7.88231 3.55342 10.1558C4.77689 12.4293 5.84006 14.2607 6.74228 15.6483C7.64471 17.0369 8.56456 18.3474 9.5018 19.5793C10.4391 20.8116 11.0594 21.6013 11.363 21.9482C11.6669 22.2958 11.9056 22.5557 12.0791 22.7292L12.7301 23.3539C13.1466 23.7705 13.7582 24.2694 14.5653 24.8507C15.3725 25.4324 16.2662 26.0049 17.2467 26.5694C18.2275 27.1332 19.3684 27.5929 20.6702 27.9487C21.9718 28.3047 23.2387 28.4477 24.471 28.3787H27.4649C28.0719 28.3262 28.5319 28.1354 28.8447 27.8059L28.9482 27.6754C29.0179 27.5717 29.0832 27.4109 29.1432 27.1942C29.2042 26.9774 29.2344 26.7384 29.2344 26.4784C29.2167 25.7322 29.2734 25.0597 29.4034 24.4611C29.5332 23.8626 29.6809 23.4113 29.8464 23.1074C30.0117 22.8038 30.1982 22.5476 30.4059 22.3399C30.6139 22.1317 30.7622 22.0056 30.8492 21.9622C30.9357 21.9185 31.0047 21.8889 31.0567 21.8711C31.4732 21.7324 31.9634 21.8667 32.5279 22.2749C33.0922 22.6828 33.6214 23.1864 34.1162 23.7849C34.6109 24.384 35.2052 25.0562 35.8992 25.8022C36.5939 26.5487 37.2012 27.1034 37.7214 27.4684L38.2419 27.7809C38.5897 27.9892 39.0409 28.1802 39.5964 28.3537C40.1509 28.5272 40.6367 28.5707 41.0537 28.4839L47.7179 28.3799C48.3771 28.3799 48.8899 28.2707 49.2536 28.0542C49.6184 27.8372 49.8349 27.5982 49.9046 27.3384C49.9744 27.0782 49.9781 26.7829 49.9179 26.4527C49.8561 26.1234 49.7954 25.8932 49.7349 25.7632Z" fill="white"/>
</g>
<defs>
<clipPath id="clip0_2_41">
<rect width="50" height="28.7499" fill="white"/>
</clipPath>
</defs>
</svg>
