<svg width="50" height="36" viewBox="0 0 50 36" fill="none" xmlns="http://www.w3.org/2000/svg">
<g clip-path="url(#clip0_2_43)">
<path d="M48.0511 3.02055C46.2463 0.875132 42.9139 0 36.5503 0H13.4494C6.93984 0 3.55113 0.931581 1.75307 3.21568C0 5.44271 0 8.72405 0 13.2655V21.9215C0 30.7197 2.08 35.1868 13.4494 35.1868H36.5503C42.0689 35.1868 45.1271 34.4147 47.1055 32.5213C49.1345 30.5797 50 27.4097 50 21.9215V13.2655C50 8.47616 49.8645 5.17547 48.0511 3.02055ZM32.1003 18.7886L21.6102 24.2708C21.3757 24.3933 21.1192 24.4542 20.8631 24.4542C20.5731 24.4542 20.2837 24.3761 20.0274 24.2209C19.5448 23.9285 19.2502 23.4055 19.2502 22.8413V11.912C19.2502 11.3488 19.544 10.8262 20.0257 10.5337C20.5074 10.2411 21.1066 10.2211 21.6064 10.4808L32.0966 15.9277C32.6303 16.2048 32.9653 16.7557 32.9661 17.3568C32.9668 17.9584 32.6332 18.5102 32.1003 18.7886Z" fill="white"/>
</g>
<defs>
<clipPath id="clip0_2_43">
<rect width="50" height="35.5263" fill="white"/>
</clipPath>
</defs>
</svg>
